<?xml version="1.0" encoding="UTF-8" standalone="no"?>
<!DOCTYPE svg PUBLIC "-//W3C//DTD SVG 1.1//EN" "http://www.w3.org/Graphics/SVG/1.1/DTD/svg11.dtd">
<svg width="100%" height="100%" viewBox="0 0 1280 1280" version="1.1" xmlns="http://www.w3.org/2000/svg" xmlns:xlink="http://www.w3.org/1999/xlink" xml:space="preserve" xmlns:serif="http://www.serif.com/" style="fill-rule:evenodd;clip-rule:evenodd;stroke-linejoin:round;stroke-miterlimit:2;">
    <g transform="matrix(0.1,0,0,-0.1,0,1280)">
        <path d="M6135,11194C4943,11118 3886,10651 3047,9830C2285,9085 1800,8135 1651,7093C1613,6832 1605,6709 1606,6395C1606,5952 1644,5635 1745,5230C1834,4879 1926,4628 2095,4285C2280,3909 2459,3633 2731,3305C2849,3162 3192,2824 3347,2697C4058,2116 4886,1757 5787,1640C6099,1599 6477,1590 6585,1620C6767,1671 6913,1763 7019,1895C7149,2056 7210,2245 7196,2450C7184,2647 7128,2775 6977,2955C6910,3035 6840,3171 6814,3275C6789,3371 6789,3560 6814,3655C6877,3898 7039,4092 7263,4195C7412,4263 7404,4262 8150,4270C8521,4274 8836,4280 8850,4283C8864,4287 8920,4296 8975,4305C9511,4389 10025,4656 10422,5057C10746,5384 10961,5745 11094,6190C11202,6550 11227,7000 11164,7455C10978,8790 10098,9967 8785,10635C8203,10931 7600,11106 6920,11175C6773,11190 6266,11202 6135,11194ZM5295,10100C5567,10014 5769,9804 5842,9532C5870,9423 5870,9245 5841,9135C5767,8854 5546,8633 5265,8559C5151,8529 4985,8529 4871,8559C4594,8632 4387,8830 4300,9105C4272,9195 4262,9372 4280,9473C4334,9786 4581,10043 4894,10115C4988,10137 5206,10129 5295,10100ZM7898,10115C8213,10049 8465,9790 8520,9473C8538,9372 8528,9195 8500,9105C8413,8830 8206,8632 7929,8559C7815,8529 7649,8529 7535,8559C7254,8633 7033,8854 6959,9135C6929,9247 6929,9424 6959,9534C7038,9831 7282,10061 7581,10119C7652,10133 7823,10131 7898,10115ZM3590,7989C3767,7961 3903,7889 4035,7756C4168,7622 4235,7484 4260,7292C4292,7047 4199,6796 4013,6619C3915,6525 3812,6468 3673,6428C3571,6399 3369,6397 3270,6424C2908,6523 2670,6832 2670,7199C2670,7364 2712,7510 2797,7638C2972,7901 3283,8039 3590,7989ZM9548,7970C9896,7872 10130,7562 10130,7200C10130,7035 10091,6903 10004,6767C9754,6380 9234,6284 8858,6557C8736,6645 8620,6807 8572,6956C8484,7227 8552,7533 8747,7741C8870,7871 9018,7954 9185,7986C9281,8005 9454,7997 9548,7970Z" style="fill:white;fill-rule:nonzero;"/>
    </g>
</svg>
