<?xml version="1.0" encoding="UTF-8" standalone="no"?>
<!DOCTYPE svg PUBLIC "-//W3C//DTD SVG 1.1//EN" "http://www.w3.org/Graphics/SVG/1.1/DTD/svg11.dtd">
<svg width="100%" height="100%" viewBox="0 0 2000 1024" version="1.1" xmlns="http://www.w3.org/2000/svg" xmlns:xlink="http://www.w3.org/1999/xlink" xml:space="preserve" xmlns:serif="http://www.serif.com/" style="fill-rule:evenodd;clip-rule:evenodd;stroke-linecap:round;stroke-linejoin:round;stroke-miterlimit:1.5;">
    <g transform="matrix(1,0,0,1,703.477,-22.859)">
        <g transform="matrix(1.11176,0,0,0.909441,-792.821,101.202)">
            <path d="M1879.32,301.937C1879.32,198.33 1810.51,114.214 1725.75,114.214L233.925,114.214C149.172,114.214 80.363,198.33 80.363,301.937L80.363,677.385C80.363,780.992 149.172,865.108 233.925,865.108L1725.75,865.108C1810.51,865.108 1879.32,780.992 1879.32,677.385L1879.32,301.937Z" style="fill:rgb(40,75,99);"/>
        </g>
        <g transform="matrix(1,0,0,1,130,32)">
            <g transform="matrix(3.4223,0,0,3.4223,824.383,469.558)">
                <g transform="matrix(1,0,0,1,-50,-50)">
                    <g transform="matrix(1.95153,0,0,1.4374,-47.5766,-18.9937)">
                        <path d="M69.271,42.085C63.33,34.947 57.388,27.809 51.447,20.671C51.01,20.147 50.496,19.956 50,19.99C49.504,19.956 48.989,20.147 48.553,20.671C42.612,27.808 36.67,34.947 30.729,42.085C29.629,43.404 28.86,48.887 32.175,49.579L39.654,49.579L39.654,71.965C39.654,73.081 39.872,75.766 41.701,76.012L58.599,76.012C60.354,75.176 60.346,73.081 60.346,71.965L60.346,49.579L67.825,49.579C71.14,47.811 70.371,43.404 69.271,42.085Z" style="fill:white;fill-rule:nonzero;"/>
                    </g>
                </g>
            </g>
            <g transform="matrix(0.846341,-5.89916e-05,-6.69089e-05,1,215.886,-218.898)">
                <path d="M854.627,886.889L576.791,886.48" style="fill:none;stroke:white;stroke-width:42.52px;"/>
            </g>
        </g>
    </g>
    <g transform="matrix(1,0,0,1,-39.9999,130.536)">
        <text x="266.4px" y="488.567px" style="font-family:'Arial-BoldMT', 'Arial', sans-serif;font-weight:700;font-size:266.667px;fill:white;">UPLOAD</text>
    </g>
</svg>
